# xmcd
#
# Track frame offsets:
#	150
#	14572
#	30282
#	44855
#	54577
#	71267
#	83337
#	103545
#	119815
#	134600
#	143482
#	157767
#	174127
#	186977
#	197397
#	212425
#
# Disc length: 3010 seconds
#
# Revision: 0
# Processed by: cddbd v1.5.1PL0 Copyright (c) Steve Scherf et al.
# Submitted via: dBpowerAMP V4.0
#
DISCID=cf0bc010
DTITLE=Southern Starr Bluegrass - Another Night
DYEAR=1900
DGENRE=Bluegrass
TTITLE0=Another Night
TTITLE1=Rocky Top
TTITLE2=Tennessee Waltz
TTITLE3=Just a Little Walk With Jesus
TTITLE4=The Muleskinner Blues
TTITLE5=I'll Go Steppin Too
TTITLE6=Just Like You
TTITLE7=Paul and Silas
TTITLE8=Amazing Grace
TTITLE9=How Mountain Girls Can Love
TTITLE10=The Nine Pound Hammer
TTITLE11=Family Bible
TTITLE12=Pike Country Breakdown
TTITLE13=I'll Fly Away
TTITLE14=Peace In The Valley
TTITLE15=Orange Blossom Special
EXTD=
EXTT0=
EXTT1=
EXTT2=
EXTT3=
EXTT4=
EXTT5=
EXTT6=
EXTT7=
EXTT8=
EXTT9=
EXTT10=
EXTT11=
EXTT12=
EXTT13=
EXTT14=
EXTT15=
PLAYORDER=
